<?xml version="1.0" encoding="utf-8"?>
<!-- Generator: Adobe Illustrator 25.2.1, SVG Export Plug-In . SVG Version: 6.00 Build 0)  -->
<svg version="1.1" id="Layer_1" xmlns="http://www.w3.org/2000/svg" xmlns:xlink="http://www.w3.org/1999/xlink" x="0px" y="0px"
	 viewBox="0 0 68.83 48.31" style="enable-background:new 0 0 68.83 48.31;" xml:space="preserve">
<style type="text/css">
	.st0{fill:#F04D60;}
</style>
<path class="st0" d="M63.35,4.8l0.86,38.86c0,0,0,0-0.01,0.01c-4.28,0.11-8.02-2.3-9.82-5.86c-0.75-1.46-1.17-3.11-1.17-4.86
	l-0.86-16.67c0-0.93-1.32-1.1-1.56-0.21l-4.82,17.96c-0.45,1.69-1.29,3.17-2.39,4.39c-1.87,2.09-4.54,3.38-7.4,3.53
	c-0.68,0.13-1.35,0.19-2.02,0.19c-3.14,0-6.1-1.39-8.1-3.73c-1.07-1.24-1.88-2.74-2.29-4.44l-4.85-19.78
	c-0.22-0.91-1.56-0.75-1.56,0.19L16.4,32.95c0,1.75-0.43,3.4-1.18,4.86c-1.79,3.56-5.54,5.97-9.81,5.86c0,0,0,0-0.01-0.01L6.36,4.8
	h16.61c2.91,0,5.44,1.99,6.14,4.81l4.99,20.28c0.2,0.82,1.37,0.83,1.59,0.02l5.49-20.43c0.74-2.76,3.24-4.68,6.1-4.68H63.35z"/>
</svg>
